# xmcd
#
# Track frame offsets:
#	150
#	20104
#	37577
#	51547
#	70003
#	88500
#	107055
#	122634
#	142745
#	157678
#	176784
#	196479
#	214867
#	230845
#
# Disc length: 3373 seconds
#
# Revision: 0
# Processed by: cddbd v1.5.2PL0 Copyright (c) Steve Scherf et al.
# Submitted via: EasyCDDAExtractor 15.3.0.1
#
DISCID=bd0d2b0e
DTITLE=Alejandro Fernandez - Canciones De Amor
DYEAR=2012
DGENRE=Latin
TTITLE0=Hablame
TTITLE1=Me Dedique A Perderte
TTITLE2=Amor De Luna
TTITLE3=Si Tu Supieras
TTITLE4=Quisiera
TTITLE5=Que Voy A Hacer Con Mi Amor
TTITLE6=Tantita Pena
TTITLE7=Entre Tus Brazos
TTITLE8=Abrazame
TTITLE9=Canta Corazon
TTITLE10=Que Lastima
TTITLE11=Nube Viajera
TTITLE12=Como Quien Pierde Una Estrella
TTITLE13=Quiereme
EXTD=
EXTT0=
EXTT1=
EXTT2=
EXTT3=
EXTT4=
EXTT5=
EXTT6=
EXTT7=
EXTT8=
EXTT9=
EXTT10=
EXTT11=
EXTT12=
EXTT13=
PLAYORDER=
